PathFileType	4	(X/Y/Z)	D:\Share\Shared_Data\Ergonomics\Sit To Stand Pertubation\S1\Perturbed_NoHarness.trc
DataRate	CameraRate	NumFrames	NumMarkers	Units	OrigDataRate	OrigDataStartFrame	OrigNumFrames	
100	100	9	18	m	100	3503	231
Frame#	Time	L_ASIS			R_ASIS			R_Pelvis			V_Sacral			L_Pelvis			Clavical			R_Acromium			L_Acromium			Sternum			Torso			R_Thigh_Med			R_Thigh_Lat			R_Thigh			R_Shank_Med			R_Shank_Lat			R_Shank			R_Heel			R_Toe			
		X1	Y1	Z1	X2	Y2	Z2	X3	Y3	Z3	X4	Y4	Z4	X5	Y5	Z5	X6	Y6	Z6	X7	Y7	Z7	X8	Y8	Z8	X9	Y9	Z9	X10	Y10	Z10	X11	Y11	Z11	X12	Y12	Z12	X13	Y13	Z13	X14	Y14	Z14	X15	Y15	Z15	X16	Y16	Z16	X17	Y17	Z17	X18	Y18	Z18	

3503	35.02	0.51262323	0.90098462	-0.10146793	0.48376236	0.89657642	0.095663315	0.40447778	0.90399823	0.12182515	0.32170093	0.89836621	-0.022656273	0.4285061	0.90195374	-0.16636745	0.46507211	1.2488876	-0.012758086	0.388746	1.317594	0.13202046	0.36840384	1.2712202	-0.22140355	0.44402457	1.2620092	0.088368683	0.46471445	1.2541669	-0.072817406	0.36013718	0.41941437	0.061599411	0.37738776	0.44293262	0.17894975	0.47253909	0.60023932	0.11644181	0.34423105	0.10151634	0.10640453	0.31984326	0.10290461	0.18710919	0.3402153	0.31417023	0.19943419	0.27236166	0.03396875	0.13133133	0.47851584	0.045290359	0.14882828
3504	35.03	0.51259802	0.90097693	-0.10151293	0.48370172	0.89657367	0.09562075	0.40442606	0.9039931	0.12176952	0.32165799	0.89838025	-0.022737326	0.42847757	0.9019549	-0.16642542	0.46510007	1.2488723	-0.012850916	0.38879437	1.3175997	0.13192285	0.36832498	1.2713191	-0.22168433	0.44405774	1.2620134	0.08827919	0.46472345	1.254167	-0.072910469	0.36010431	0.41941418	0.061568405	0.37734326	0.4429567	0.17893764	0.47247903	0.60025043	0.11641296	0.34423282	0.1015162	0.10640577	0.31983734	0.10290971	0.18710788	0.34017633	0.31417245	0.19942	0.27236237	0.033968998	0.13133006	0.47851483	0.04529261	0.1488299
3505	35.04	0.51256946	0.90097198	-0.10155412	0.48364346	0.89657294	0.095580467	0.40437881	0.90398938	0.12172129	0.32161295	0.89839508	-0.022810091	0.42844513	0.90195892	-0.16647765	0.46512335	1.248858	-0.012936866	0.38884494	1.3176077	0.13183594	0.36822003	1.2714413	-0.22198915	0.44409106	1.2620192	0.08819709	0.46472452	1.2541687	-0.072996742	0.36006973	0.41941583	0.061539253	0.37729901	0.44298093	0.17892924	0.47242181	0.600263	0.11638503	0.3442345	0.10151723	0.10640806	0.31983133	0.10291492	0.18710773	0.34013785	0.31417542	0.19940895	0.27236298	0.03396949	0.13132919	0.47851413	0.045294403	0.14883151
3506	35.05	0.51253711	0.90096985	-0.10159144	0.48358731	0.89657397	0.095542191	0.40433542	0.90398657	0.12168046	0.32156573	0.89841022	-0.022874004	0.42840887	0.90196564	-0.16652377	0.46514111	1.2488445	-0.013014956	0.38889624	1.3176172	0.13176038	0.36809628	1.2715789	-0.22230367	0.44412344	1.2620253	0.088123222	0.4647186	1.2541714	-0.073075203	0.36003333	0.41941888	0.061512199	0.37725519	0.44300439	0.17892387	0.47236755	0.60027679	0.11635777	0.34423578	0.10151913	0.10641135	0.31982547	0.10291989	0.18710876	0.34010016	0.31417902	0.19940099	0.27236349	0.033970093	0.13132877	0.47851376	0.045295692	0.1488331
3507	35.06	0.51250061	0.9009704	-0.10162485	0.48353305	0.89657635	0.095505821	0.40429498	0.90398425	0.12164699	0.32151605	0.89842529	-0.022928598	0.42836884	0.90197461	-0.16656332	0.46515268	1.2488315	-0.013084259	0.38894702	1.3176278	0.13169679	0.36796149	1.2717234	-0.22261258	0.44415372	1.2620314	0.088058449	0.46470657	1.2541736	-0.073144905	0.35999557	0.419423	0.061487514	0.37721228	0.44302634	0.17892097	0.47231622	0.60029126	0.116331	0.34423657	0.10152162	0.10641557	0.31981976	0.10292435	0.18711096	0.34006384	0.31418289	0.19939598	0.27236374	0.033970695	0.13132869	0.47851385	0.045296383	0.14883455
3508	35.07	0.51245935	0.90097363	-0.10165439	0.48348022	0.8965799	0.095471344	0.40425659	0.90398187	0.1216207	0.32146356	0.89844006	-0.022973497	0.42832483	0.90198578	-0.16659586	0.46515738	1.248819	-0.013143957	0.38899606	1.3176392	0.1316458	0.36782297	1.2718668	-0.22290073	0.44418097	1.2620369	0.088003532	0.464689	1.2541752	-0.073205048	0.35995685	0.41942792	0.061465462	0.37717075	0.44304605	0.17891988	0.47226801	0.60030603	0.11630476	0.34423685	0.10152441	0.10642057	0.3198143	0.10292808	0.1871142	0.34002921	0.31418677	0.19939371	0.27236371	0.033971237	0.13132893	0.4785145	0.045296345	0.14883578
3509	35.08	0.51241248	0.90097955	-0.1016802	0.48342838	0.89658459	0.095438904	0.40421918	0.90397882	0.12160138	0.32140793	0.89845422	-0.023008425	0.4282767	0.90199902	-0.16662102	0.46515469	1.2488069	-0.013193377	0.38904248	1.3176509	0.13160791	0.36768762	1.2720006	-0.22315378	0.44420425	1.2620419	0.087959137	0.46466623	1.2541757	-0.073255005	0.35991794	0.4194332	0.061446274	0.37713101	0.44306329	0.17892014	0.47222296	0.60032092	0.11627912	0.34423663	0.10152731	0.10642622	0.31980914	0.10293096	0.18711827	0.3399968	0.31419055	0.19939384	0.2723634	0.033971695	0.1313295	0.47851572	0.045295456	0.14883673
3510	35.09	0.51235938	0.9009884	-0.1017025	0.48337714	0.89658997	0.095408714	0.40418164	0.90397473	0.12158868	0.32134872	0.89846796	-0.023033205	0.42822418	0.90201422	-0.1666384	0.4651442	1.2487953	-0.013232014	0.38908548	1.3176631	0.13158348	0.36756128	1.2721177	-0.22335878	0.44422293	1.2620461	0.087925819	0.46463834	1.2541752	-0.07329435	0.35987943	0.41943863	0.061430138	0.37709366	0.44307773	0.17892122	0.47218109	0.60033575	0.11625428	0.34423599	0.10153011	0.10643236	0.31980447	0.10293294	0.18712308	0.33996686	0.31419403	0.19939609	0.2723627	0.033972054	0.13133026	0.47851764	0.045293591	0.14883736
3511	35.1	0.51229913	0.90100006	-0.10172163	0.48332593	0.89659625	0.095381065	0.40414294	0.90396942	0.12158219	0.32128571	0.89848108	-0.023047764	0.42816669	0.90203131	-0.16664784	0.46512534	1.2487839	-0.013259548	0.38912448	1.3176752	0.13157277	0.36744876	1.2722115	-0.22350456	0.44423639	1.2620492	0.087903938	0.46460513	1.2541737	-0.073322838	0.35984204	0.41944379	0.06141716	0.37705908	0.44308926	0.17892282	0.47214243	0.6003504	0.11623044	0.34423492	0.10153269	0.1064388	0.31980032	0.10293398	0.18712834	0.33993979	0.3141969	0.19940012	0.27236166	0.03397234	0.13133124	0.47852032	0.045290672	0.14883763
